<?xml version="1.0" standalone="no"?>
<!DOCTYPE svg PUBLIC "-//W3C//DTD SVG 20010904//EN"
 "http://www.w3.org/TR/2001/REC-SVG-20010904/DTD/svg10.dtd">
<svg version="1.0" xmlns="http://www.w3.org/2000/svg"
 width="250.000000pt" height="43.000000pt" viewBox="0 0 250.000000 43.000000"
 preserveAspectRatio="xMidYMid meet">
<metadata>
Created by potrace 1.14, written by Peter Selinger 2001-2017
</metadata>
<g transform="translate(0.000000,43.000000) scale(0.100000,-0.100000)"
fill="#000000" stroke="none">
<path d="M2171 371 c-17 -11 -4 -16 94 -32 39 -6 74 -15 79 -19 12 -11 -102
-84 -170 -110 -107 -40 -145 -38 -276 14 -166 66 -190 63 -322 -42 -93 -73
-151 -71 -298 13 -91 52 -100 55 -165 55 -89 0 -143 -20 -243 -92 -103 -74
-135 -90 -176 -91 -46 -1 -78 24 -152 123 -74 99 -102 120 -160 120 -75 0
-303 -116 -331 -169 -16 -29 -13 -58 5 -65 22 -8 20 -9 34 24 7 17 29 43 49
59 43 34 156 92 225 115 48 16 49 16 73 -6 13 -12 34 -38 46 -58 68 -113 147
-170 236 -170 62 0 95 16 210 99 91 66 172 97 224 87 17 -4 59 -25 93 -47 63
-41 181 -88 220 -89 43 0 110 32 181 86 100 77 118 78 265 20 162 -64 227 -60
387 25 69 37 73 38 67 17 -17 -58 -19 -88 -5 -88 28 0 38 17 53 80 28 118 29
115 -71 129 -49 7 -104 14 -123 17 -19 3 -41 1 -49 -5z"/>
</g>
</svg>
